<?xml version="1.0" standalone="no"?><!DOCTYPE svg PUBLIC "-//W3C//DTD SVG 1.1//EN" "http://www.w3.org/Graphics/SVG/1.1/DTD/svg11.dtd"><svg t="1671608795562" class="icon" viewBox="0 0 1024 1024" version="1.1" xmlns="http://www.w3.org/2000/svg" p-id="1438" xmlns:xlink="http://www.w3.org/1999/xlink" width="200" height="200"><path d="M32 864v128h410.624v-32H64v-64h378.624v-32H32z m550.688 0v32H960v64H582.688v32H992v-128H582.688zM496 736v128h32v-128h-32z" fill="#2B4255" p-id="1439"></path><path d="M224 640a32 32 0 0 1-32 32 32 32 0 0 1-32-32 32 32 0 0 1 32-32 32 32 0 0 1 32 32z m0-256a32 32 0 0 1-32 32 32 32 0 0 1-32-32 32 32 0 0 1 32-32 32 32 0 0 1 32 32z m0-256a32 32 0 0 1-32 32 32 32 0 0 1-32-32 32 32 0 0 1 32-32 32 32 0 0 1 32 32z m64 480h384v64H288v-32-32z m416 0h32v64h-32v-32-32z m64 0h32v64h-32v-32-32z m64 0h32v64h-32v-32-32zM288 352h384v64H288v-32-32z m416 0h32v64h-32v-32-32z m64 0h32v64h-32v-32-32z m64 0h32v64h-32v-32-32zM288 96h384v64H288V128 96z m416 0h32v64h-32V128 96z m64 0h32v64h-32V128 96z m64 0h32v64h-32V128 96z" fill="#F05542" p-id="1440"></path><path d="M496 448v128h32v-128h-32z m0-256v128h32V192h-32z" fill="#2B4255" p-id="1441"></path><path d="M192 544c-52.896 0-96 43.072-96 96 0 52.896 43.104 96 96 96h640c52.896 0 96-43.104 96-96 0-52.928-43.104-96-96-96H192z m0 32h640c35.744 0 64 28.256 64 64 0 35.712-28.256 64-64 64H192c-35.744 0-64-28.288-64-64 0-35.744 28.256-64 64-64zM192 32C139.104 32 96 75.04 96 128c0 52.896 43.104 96 96 96h640c52.896 0 96-43.104 96-96 0-52.928-43.104-96-96-96h-240a16 16 0 1 0 0 32H832c35.744 0 64 28.256 64 64 0 35.712-28.256 64-64 64H192c-35.744 0-64-28.288-64-64 0-35.744 28.256-64 64-64h160a16 16 0 1 0 0-32H192z m240 0a16 16 0 1 0 0 32H512a16 16 0 1 0 0-32h-80zM192 288c-52.896 0-96 43.072-96 96 0 52.896 43.104 96 96 96h640c52.896 0 96-43.104 96-96 0-52.928-43.104-96-96-96H192z m0 32h640c35.744 0 64 28.256 64 64 0 35.712-28.256 64-64 64H192c-35.744 0-64-28.288-64-64 0-35.744 28.256-64 64-64z m320 512c-52.8 0-96 43.136-96 96 0 52.8 43.2 96 96 96s96-43.2 96-96c0-52.864-43.2-96-96-96z m0 32c35.52 0 64 28.448 64 64 0 35.52-28.48 64-64 64-35.52 0-64-28.48-64-64 0-35.552 28.48-64 64-64z" fill="#2B4255" p-id="1442"></path></svg>