<?xml version="1.0" standalone="no"?><!DOCTYPE svg PUBLIC "-//W3C//DTD SVG 1.1//EN" "http://www.w3.org/Graphics/SVG/1.1/DTD/svg11.dtd"><svg t="1671609453336" class="icon" viewBox="0 0 1024 1024" version="1.1" xmlns="http://www.w3.org/2000/svg" p-id="1580" xmlns:xlink="http://www.w3.org/1999/xlink" width="200" height="200"><path d="M373.568 211.84l-224 192 20.864 24.32 224-192-20.864-24.32zM173.76 535.776l-27.456 16.448 192 320 27.456-16.448-192-320z m621.184 249.088l-336 112 10.112 30.304 336-112-10.112-30.304z m-200.64-659.872l-4.608 31.68 240 35.2 4.608-31.68-240-35.2z m332.16 159.552a16 16 0 0 0-15.392 15.008l-7.008 91.232a16 16 0 1 0 31.872 2.432l7.04-91.232a16 16 0 0 0-16.544-17.44z m-15.104 195.232a16 16 0 0 0-15.296 15.04l-8 104-8 104a16 16 0 1 0 31.872 2.4l8-104 8-104a16 16 0 0 0-16.576-17.44z" fill="#2B4255" p-id="1581"></path><path d="M848 672a80.256 80.256 0 0 0-80 80c0 43.968 36 80 80 80s80-36.032 80-80c0-44.032-36-80-80-80z m0 32c26.688 0 48 21.28 48 48 0 26.688-21.312 48-48 48s-48-21.312-48-48c0-26.72 21.312-48 48-48z" fill="#F05542" p-id="1582"></path><path d="M852.672 276.672l-224 224 22.656 22.624 224-224-22.656-22.624z m-204.416 317.632l-16.512 27.424 160 96 16.512-27.424-160-96z m-454.816-98.24l-2.88 31.84 352 32 2.88-31.872-352-32z" fill="#2B4255" p-id="1583"></path><path d="M592 480a80.256 80.256 0 0 0-80 80c0 43.968 36 80 80 80s80-36.032 80-80c0-44.032-36-80-80-80z m0 32c26.688 0 48 21.28 48 48 0 26.688-21.312 48-48 48s-48-21.312-48-48c0-26.72 21.312-48 48-48zM480 32c-70.496 0-128 57.472-128 128 0 70.464 57.504 128 128 128 70.496 0 128-57.536 128-128 0-70.528-57.504-128-128-128z m0 32c53.216 0 96 42.784 96 96 0 53.184-42.784 96-96 96s-96-42.816-96-96c0-53.216 42.784-96 96-96z m-80 768a80.256 80.256 0 0 0-80 80c0 43.968 36 80 80 80s80-36.032 80-80c0-44.032-36-80-80-80z m0 32c26.688 0 48 21.28 48 48 0 26.688-21.312 48-48 48s-48-21.312-48-48c0-26.72 21.312-48 48-48zM896 128c-52.8 0-96 43.136-96 96 0 52.8 43.2 96 96 96s96-43.2 96-96c0-52.864-43.2-96-96-96z m0 32c35.52 0 64 28.448 64 64 0 35.52-28.48 64-64 64-35.52 0-64-28.48-64-64 0-35.552 28.48-64 64-64zM128 384c-52.8 0-96 43.136-96 96 0 52.8 43.2 96 96 96s96-43.2 96-96c0-52.864-43.2-96-96-96z m0 32c35.52 0 64 28.448 64 64 0 35.52-28.48 64-64 64-35.52 0-64-28.48-64-64 0-35.552 28.48-64 64-64z" fill="#F05542" p-id="1584"></path></svg>