<?xml version="1.0" standalone="no"?><!DOCTYPE svg PUBLIC "-//W3C//DTD SVG 1.1//EN" "http://www.w3.org/Graphics/SVG/1.1/DTD/svg11.dtd"><svg t="1671614644081" class="icon" viewBox="0 0 1024 1024" version="1.1" xmlns="http://www.w3.org/2000/svg" p-id="1315" xmlns:xlink="http://www.w3.org/1999/xlink" width="200" height="200"><path d="M520.704 332.8h153.6v40.96h-153.6z" fill="#EB4446" p-id="1316"></path><path d="M860.16 471.04H81.92V317.44c0-45.056 36.864-81.92 81.92-81.92h778.24v153.6c0 45.056-36.864 81.92-81.92 81.92zM122.88 430.08h737.28c22.528 0 40.96-18.432 40.96-40.96V276.48H163.84c-22.528 0-40.96 18.432-40.96 40.96v112.64z" fill="#333333" p-id="1317"></path><path d="M520.704 650.24h153.6v40.96h-153.6z" fill="#EB4446" p-id="1318"></path><path d="M860.16 788.48H81.92v-153.6c0-45.056 36.864-81.92 81.92-81.92h778.24v153.6c0 45.056-36.864 81.92-81.92 81.92z m-737.28-40.96h737.28c22.528 0 40.96-18.432 40.96-40.96v-112.64H163.84c-22.528 0-40.96 18.432-40.96 40.96v112.64z" fill="#333333" p-id="1319"></path><path d="M781.824 430.08h40.96v163.84h-40.96zM740.864 916.48h-368.64v-168.96h40.96v128h327.68c22.528 0 40.96-18.432 40.96-40.96v-87.04h40.96v87.04c0 45.056-36.864 81.92-81.92 81.92zM822.784 276.48h-40.96V148.48h-327.68c-22.528 0-40.96 18.432-40.96 40.96v87.04h-40.96V189.44c0-45.056 36.864-81.92 81.92-81.92h368.64v168.96z" fill="#333333" p-id="1320"></path><path d="M742.4 675.84H343.04V409.6c0-33.792 27.648-61.44 61.44-61.44h399.36v266.24c0 33.792-27.648 61.44-61.44 61.44z" fill="#333333" opacity=".18" p-id="1321"></path></svg>