<?xml version="1.0" standalone="no"?><!DOCTYPE svg PUBLIC "-//W3C//DTD SVG 1.1//EN" "http://www.w3.org/Graphics/SVG/1.1/DTD/svg11.dtd"><svg t="1671608740301" class="icon" viewBox="0 0 1024 1024" version="1.1" xmlns="http://www.w3.org/2000/svg" p-id="7465" xmlns:xlink="http://www.w3.org/1999/xlink" width="200" height="200"><path d="M512 320c-141.216 0-256 114.816-256 256 0 141.216 114.816 256.064 256 256.064s256-114.88 256-256.064c0-141.184-114.816-256-256-256z m-16 35.264v84.736h-157.568c37.76-48.128 92.8-79.936 157.568-84.736z m32 0c64.768 4.8 119.84 36.608 157.568 84.736H528v-84.736zM316.864 472H496v88H291.264c2.368-31.968 11.264-61.184 25.6-88z m211.136 0h179.136c14.336 26.816 23.232 56.032 25.6 88H528v-88zM291.2 592h204.8v88.064H316.864A219.008 219.008 0 0 1 291.2 592z m236.8 0h204.8a218.976 218.976 0 0 1-25.664 88.064H528V592z m-189.568 120.064H496v84.768c-64.768-4.8-119.84-36.64-157.568-84.768z m189.568 0h157.568c-37.76 48.128-92.8 79.936-157.568 84.768v-84.768z" fill="#F05542" p-id="7466"></path><path d="M414.624 346.56c-62.016 152.736-72.32 298.656-4.672 457.184l29.44-12.544c-64.448-151.104-55.04-285.12 4.864-432.576l-29.632-12.064z m192.96 0l-29.632 12.064c59.84 147.456 69.312 281.472 4.864 432.576l29.44 12.544c67.616-158.528 57.344-304.448-4.704-457.184z" fill="#F05542" p-id="7467"></path><path d="M80 64a16 16 0 0 0-16 16v864a16 16 0 0 0 16 16h864a16 16 0 0 0 16-16V476.32a16 16 0 1 0-32 0V928H96V96h832v233.76a16 16 0 1 0 32 0V80a16 16 0 0 0-16-16h-864z m863.744 307.136a16 16 0 0 0-15.744 16.256v28.416a16 16 0 1 0 32 0v-28.416a16 16 0 0 0-16.256-16.256z" fill="#2B4255" p-id="7468"></path><path d="M80 192v32h864V192h-864z" fill="#2B4255" p-id="7469"></path><path d="M160 144.032a16 16 0 0 1-16 16 16 16 0 0 1-16-16 16 16 0 0 1 16-16 16 16 0 0 1 16 16z m64 0a16 16 0 0 1-16 16 16 16 0 0 1-16-16 16 16 0 0 1 16-16 16 16 0 0 1 16 16z m64 0a16 16 0 0 1-16 16 16 16 0 0 1-16-16 16 16 0 0 1 16-16 16 16 0 0 1 16 16z" fill="#F05542" p-id="7470"></path></svg>